<svg xmlns="http://www.w3.org/2000/svg" viewBox="0 0 400 300" width="400" height="300">
  <!-- Background -->
  <rect width="400" height="300" fill="#f8f9fa"/>
  
  <!-- House 1 -->
  <rect x="50" y="150" width="80" height="100" fill="#1a365d"/>
  <polygon points="50,150 90,110 130,150" fill="#d4af37"/>
  <rect x="70" y="200" width="15" height="50" fill="#d4af37"/>
  <circle cx="82" cy="225" r="2" fill="#1a365d"/>
  <rect x="95" y="170" width="12" height="12" fill="#f7f3e9"/>
  <rect x="110" y="170" width="12" height="12" fill="#f7f3e9"/>
  <rect x="95" y="190" width="12" height="12" fill="#f7f3e9"/>
  <rect x="110" y="190" width="12" height="12" fill="#f7f3e9"/>
  
  <!-- House 2 -->
  <rect x="160" y="130" width="100" height="120" fill="#2c5282"/>
  <polygon points="160,130 210,90 260,130" fill="#d4af37"/>
  <rect x="185" y="200" width="18" height="50" fill="#d4af37"/>
  <circle cx="198" cy="230" r="2" fill="#1a365d"/>
  <rect x="220" y="150" width="15" height="15" fill="#f7f3e9"/>
  <rect x="240" y="150" width="15" height="15" fill="#f7f3e9"/>
  <rect x="220" y="180" width="15" height="15" fill="#f7f3e9"/>
  <rect x="240" y="180" width="15" height="15" fill="#f7f3e9"/>
  
  <!-- Building -->
  <rect x="290" y="100" width="60" height="150" fill="#1a365d"/>
  <rect x="300" y="120" width="10" height="12" fill="#f7f3e9"/>
  <rect x="320" y="120" width="10" height="12" fill="#f7f3e9"/>
  <rect x="340" y="120" width="10" height="12" fill="#f7f3e9"/>
  <rect x="300" y="140" width="10" height="12" fill="#f7f3e9"/>
  <rect x="320" y="140" width="10" height="12" fill="#f7f3e9"/>
  <rect x="340" y="140" width="10" height="12" fill="#f7f3e9"/>
  <rect x="300" y="160" width="10" height="12" fill="#f7f3e9"/>
  <rect x="320" y="160" width="10" height="12" fill="#f7f3e9"/>
  <rect x="340" y="160" width="10" height="12" fill="#f7f3e9"/>
  
  <!-- Key -->
  <circle cx="150" cy="60" r="15" fill="#d4af37"/>
  <circle cx="150" cy="60" r="8" fill="#f8f9fa"/>
  <rect x="165" y="57" width="30" height="6" fill="#d4af37"/>
  <rect x="190" y="54" width="5" height="4" fill="#d4af37"/>
  <rect x="190" y="65" width="5" height="4" fill="#d4af37"/>
  
  <!-- Contract -->
  <rect x="80" y="40" width="40" height="30" fill="#ffffff" stroke="#1a365d" stroke-width="1"/>
  <rect x="85" y="45" width="30" height="2" fill="#1a365d"/>
  <rect x="85" y="50" width="25" height="1" fill="#1a365d"/>
  <rect x="85" y="53" width="28" height="1" fill="#1a365d"/>
  <rect x="85" y="56" width="20" height="1" fill="#1a365d"/>
  <rect x="85" y="59" width="25" height="1" fill="#1a365d"/>
  <rect x="85" y="62" width="22" height="1" fill="#1a365d"/>
  
  <!-- Signature line -->
  <line x1="85" y1="67" x2="110" y2="67" stroke="#d4af37" stroke-width="1"/>
</svg>